<?xml version="1.0" encoding="UTF-8" standalone="no"?>
<svg
   xmlns:dc="http://purl.org/dc/elements/1.1/"
   xmlns:cc="http://creativecommons.org/ns#"
   xmlns:rdf="http://www.w3.org/1999/02/22-rdf-syntax-ns#"
   xmlns:svg="http://www.w3.org/2000/svg"
   xmlns="http://www.w3.org/2000/svg"
   width="19.843777mm"
   height="21.960352mm"
   viewBox="0 0 19.843777 21.960352"
   version="1.1"
   id="svg8">
  <defs
     id="defs2" />
  <metadata
     id="metadata5">
    <rdf:RDF>
      <cc:Work
         rdf:about="">
        <dc:format>image/svg+xml</dc:format>
        <dc:type
           rdf:resource="http://purl.org/dc/dcmitype/StillImage" />
        <dc:title></dc:title>
      </cc:Work>
    </rdf:RDF>
  </metadata>
  <g
     transform="translate(-130.96875,-136.66256)"
     style="fill:#794400;fill-opacity:1"
     id="layer3">
    <rect
       style="fill:#794400;fill-opacity:1;stroke:none;stroke-width:1;stroke-linecap:round;stroke-miterlimit:4;stroke-dasharray:none;stroke-dashoffset:0;stroke-opacity:1"
       id="rect932"
       width="21.960352"
       height="19.843777"
       x="-158.62291"
       y="130.96875"
       transform="rotate(-90)" />
  </g>
  <g
     transform="translate(-130.96875,-136.66256)"
     id="layer1">
    <path
       style="fill:#ffffff;fill-opacity:1;stroke:none;stroke-width:0.26458332px;stroke-linecap:butt;stroke-linejoin:miter;stroke-opacity:1"
       d="m 134.14375,157.3 2.64583,-3.70417 h 0.79375 L 135.20208,157.3 Z"
       id="path828" />
    <path
       style="fill:#ffffff;fill-opacity:1;stroke:none;stroke-width:0.26458332px;stroke-linecap:butt;stroke-linejoin:miter;stroke-opacity:1"
       d="m 136.26042,156.77083 0.52916,-0.79375 h 8.20209 l 0.52916,0.79375 z"
       id="path830" />
    <path
       style="fill:#ffffff;fill-opacity:1;stroke:none;stroke-width:0.26458332px;stroke-linecap:butt;stroke-linejoin:miter;stroke-opacity:1"
       d="m 147.6375,157.3 -2.64583,-3.70417 h -0.79376 l 2.38126,3.70417 z"
       id="path828-2" />
    <path
       style="fill:#ffffff;fill-opacity:1;stroke:none;stroke-width:0.26458332px;stroke-linecap:butt;stroke-linejoin:miter;stroke-opacity:1"
       d="m 137.31875,155.18333 0.52917,-0.79375 h 6.08541 l 0.52917,0.79375 z"
       id="path830-6" />
    <path
       style="fill:#ffffff;fill-opacity:1;stroke:none;stroke-width:0.26458332px;stroke-linecap:butt;stroke-linejoin:miter;stroke-opacity:1"
       d="m 136.78958,153.06667 c -0.52916,0 -1.85208,-1.32292 -1.85208,-2.91042 V 144.6 c 1.5875,2.64583 5.02708,5.55625 5.82083,5.55625 h 0.26459 c 0.79375,0 4.49792,-2.91042 5.82083,-5.55625 v 5.55625 c 0,1.5875 -1.32291,2.91042 -1.85208,2.91042 z"
       id="path862" />
    <path
       style="fill:#ffffff;fill-opacity:1;stroke:none;stroke-width:0.26458332px;stroke-linecap:butt;stroke-linejoin:miter;stroke-opacity:1"
       d="m 140.75833,149.3625 h 0.26459 c 0.79376,0 4.49792,-3.175 5.55625,-5.82083 V 141.425 c -0.26458,-1.32291 -1.32292,-2.38125 -2.64584,-2.64583 h -1.85208 c 0,0.52916 -0.26458,0.79375 -1.05833,0.79375 h -0.26459 c -0.79375,0 -1.05833,-0.26459 -1.05833,-0.79375 h -1.85208 c -1.32292,0.26458 -2.38126,1.32291 -2.64584,2.64583 v 2.11667 c 1.5875,2.91041 4.7625,5.82083 5.55625,5.82083 z"
       id="path913" />
    <path
       style="fill:#ffffff;fill-opacity:1;stroke:none;stroke-width:0.26458332px;stroke-linecap:butt;stroke-linejoin:miter;stroke-opacity:1"
       d="m 140.75833,138.25 h 0.26458 c 0.52917,0 0.79376,0.26458 0.79375,0.52917 10e-6,0.26458 -0.26458,0.52916 -0.79375,0.52916 h -0.26458 c -0.52916,0 -0.79375,-0.26458 -0.79375,-0.52916 0,-0.26459 0.26459,-0.52917 0.79375,-0.52917 z"
       id="path915" />
  </g>
  <g
     transform="translate(-130.96875,-136.66256)"
     style="fill:#794400;fill-opacity:1"
     id="layer2">
    <ellipse
       style="fill:#794400;fill-opacity:1;stroke:none;stroke-width:1.63298297;stroke-linecap:round;stroke-miterlimit:4;stroke-dasharray:none;stroke-dashoffset:0;stroke-opacity:1"
       id="path869"
       cx="136.78958"
       cy="149.89166"
       rx="0.52916294"
       ry="0.5291636" />
    <ellipse
       style="fill:#794400;fill-opacity:1;stroke:none;stroke-width:1.63298297;stroke-linecap:round;stroke-miterlimit:4;stroke-dasharray:none;stroke-dashoffset:0;stroke-opacity:1"
       id="path869-7"
       cx="144.99167"
       cy="149.89166"
       rx="0.52916294"
       ry="0.5291636" />
    <path
       style="fill:#794400;fill-opacity:1;stroke:none;stroke-width:0.26458332px;stroke-linecap:butt;stroke-linejoin:miter;stroke-opacity:1"
       d="m 136.78958,143.0125 c -0.26458,0 -0.57406,-0.1776 -0.52916,-0.52917 l -1e-5,-1.05833 c 0.26459,-0.79375 0.79376,-1.05833 1.5875,-1.05833 h 2.64584 v 2.64583 z"
       id="path886" />
    <path
       style="fill:#794400;fill-opacity:1;stroke:none;stroke-width:0.26458332px;stroke-linecap:butt;stroke-linejoin:miter;stroke-opacity:1"
       d="m 144.99167,143.0125 c 0.26458,0 0.57406,-0.1776 0.52916,-0.52917 l 1e-5,-1.05833 c -0.26459,-0.79375 -0.79376,-1.05833 -1.5875,-1.05833 h -2.64584 v 2.64583 z"
       id="path886-8" />
    <path
       style="fill:#794400;fill-opacity:1;stroke:none;stroke-width:0.26458332px;stroke-linecap:butt;stroke-linejoin:miter;stroke-opacity:1"
       d="m 139.7,145.39375 v -1.32292 h 2.38125 v 1.32292 z"
       id="path936" />
  </g>
</svg>
